<?xml version="1.0" standalone="no"?>
<!DOCTYPE svg PUBLIC "-//W3C//DTD SVG 20010904//EN"
 "http://www.w3.org/TR/2001/REC-SVG-20010904/DTD/svg10.dtd">
<svg version="1.0" xmlns="http://www.w3.org/2000/svg"
 width="300.000000pt" height="227.000000pt" viewBox="0 0 300.000000 227.000000"
 preserveAspectRatio="xMidYMid meet">
<metadata>
Created by potrace 1.10, written by Peter Selinger 2001-2011
</metadata>
<g transform="translate(0.000000,227.000000) scale(0.100000,-0.100000)"
fill="#45200d" stroke="none">
<path d="M2650 2224 c-49 -45 -72 -112 -90 -271 -11 -88 -11 -121 -1 -152 14
-47 52 -96 90 -116 l27 -13 -48 -234 c-26 -128 -47 -234 -48 -234 0 -1 -17 -5
-37 -9 -99 -18 -153 -65 -139 -120 3 -12 -2 -32 -11 -44 -14 -21 -30 -108 -38
-207 -1 -22 -8 -50 -14 -62 -21 -39 -13 -84 22 -121 17 -18 25 -32 17 -29 -9
3 -74 11 -145 18 -191 17 -190 17 -131 46 65 31 82 48 101 98 26 67 -3 114
-80 130 -27 5 -28 4 -11 -7 63 -40 76 -90 29 -108 -47 -18 -94 -2 -183 59
-149 103 -187 113 -255 66 l-38 -26 -38 21 c-74 42 -130 23 -247 -83 -84 -76
-118 -96 -166 -96 -52 0 -66 9 -66 42 0 21 10 39 33 61 l32 30 -30 -7 c-16 -4
-42 -19 -57 -34 -37 -34 -36 -75 2 -135 l30 -47 -37 0 c-20 0 -110 -9 -200
-21 -91 -11 -167 -18 -170 -15 -3 3 15 25 40 49 53 49 56 65 28 135 -27 68
-51 155 -51 184 0 14 -11 42 -25 62 -14 21 -25 51 -25 70 0 17 -6 40 -13 49
-16 22 -90 47 -137 47 l-38 0 -63 188 c-34 103 -70 209 -80 235 -20 51 -21 49
33 61 38 8 58 32 58 68 0 31 -77 336 -109 433 -13 39 -21 51 -40 53 -23 4
-297 -83 -315 -99 -21 -19 -2 -90 68 -257 41 -97 81 -193 89 -213 8 -20 20
-40 26 -43 6 -4 36 1 66 10 31 9 57 14 58 12 6 -9 147 -445 147 -451 0 -21
-23 11 -49 66 -30 68 -79 117 -116 117 -14 0 -34 -13 -49 -31 -39 -47 -36
-109 9 -179 40 -62 59 -119 48 -146 -3 -11 -17 -35 -29 -54 -12 -19 -28 -54
-35 -78 -11 -38 -10 -47 4 -72 9 -15 17 -39 17 -53 0 -14 11 -38 24 -54 13
-15 26 -38 30 -51 4 -12 20 -29 35 -37 16 -8 34 -27 40 -44 18 -42 51 -69 89
-73 l34 -3 61 -247 c34 -135 64 -249 67 -252 3 -3 73 8 155 25 303 59 429 70
839 70 400 0 654 -23 869 -76 50 -12 93 -22 93 -21 1 0 25 95 53 210 29 114
63 238 77 275 14 36 31 81 38 99 7 18 24 45 38 60 52 57 99 196 89 266 -1 10
-23 47 -47 83 -24 35 -44 76 -44 90 0 14 16 60 35 103 45 100 44 141 -5 190
-50 50 -125 0 -155 -103 -32 -109 -54 -98 -30 15 9 40 29 135 45 210 15 75 31
141 34 146 3 6 29 15 57 22 57 14 102 47 126 93 28 55 74 240 74 303 1 67 -13
104 -58 146 -40 38 -74 48 -164 48 -77 0 -80 -1 -119 -36z m148 17 c9 -5 39
-19 65 -31 36 -17 57 -36 86 -80 l39 -58 -22 -49 c-13 -26 -36 -93 -51 -148
-34 -117 -54 -141 -144 -174 l-61 -22 -46 38 c-77 64 -89 124 -58 304 23 135
40 163 129 216 25 15 40 16 63 4z m-2536 -80 c-9 -17 -19 -25 -23 -19 -4 6
-13 14 -20 18 -9 6 -2 12 22 18 19 6 35 11 36 11 1 1 -6 -12 -15 -28z m79 -71
c9 -36 28 -109 43 -164 27 -101 34 -176 16 -176 -16 0 -26 30 -70 203 -45 179
-49 210 -22 205 12 -2 22 -22 33 -68z m-193 35 c-9 -20 -14 -22 -29 -14 -25
13 -24 18 4 29 34 14 37 12 25 -15z m113 -136 c67 -192 87 -301 48 -262 -13
13 -129 360 -129 386 0 12 6 17 16 15 12 -2 32 -46 65 -139z m-136 58 c7 -18
38 -93 69 -168 52 -126 66 -179 49 -179 -10 0 -43 32 -43 41 0 5 -27 73 -59
151 -33 79 -62 158 -66 176 -7 32 -6 33 15 22 12 -6 27 -26 35 -43z m255 -325
c0 -14 -39 -46 -47 -39 -3 4 2 16 12 27 19 21 35 26 35 12z m2450 -371 c16
-30 12 -88 -9 -129 -10 -20 -22 -52 -26 -69 -3 -18 -9 -33 -12 -33 -3 0 -25
15 -49 33 -47 36 -48 42 -12 127 35 81 85 114 108 71z m-2479 -32 c24 -24 79
-140 72 -151 -2 -5 -10 -8 -18 -8 -7 0 -23 -16 -35 -36 l-23 -35 -43 80 c-45
82 -52 117 -34 152 14 25 55 24 81 -2z m271 -159 c46 -13 68 -34 68 -66 0 -24
-1 -25 -58 -18 -78 8 -130 -7 -173 -53 -44 -46 -76 -100 -65 -110 4 -4 12 1
18 12 23 42 98 104 140 115 45 13 138 1 163 -20 13 -11 29 -59 22 -66 -2 -3
-26 0 -54 6 -60 13 -87 5 -143 -46 -38 -35 -87 -110 -77 -120 2 -3 25 20 52
51 26 31 60 62 75 70 37 19 91 19 135 1 29 -13 35 -20 35 -45 0 -26 -4 -31
-24 -31 -25 0 -176 -123 -176 -143 0 -11 60 25 115 68 58 46 72 49 101 20 41
-41 33 -78 -27 -124 -64 -51 -184 -111 -236 -118 -33 -4 -45 -1 -62 16 -11 11
-21 30 -21 40 0 11 -18 34 -40 51 -22 17 -40 38 -40 45 0 7 -11 27 -25 43 -14
17 -25 41 -25 55 0 14 -4 29 -10 32 -21 13 -8 67 39 162 51 100 83 140 136
167 35 18 103 21 157 6z m2070 -17 c37 -21 87 -84 142 -177 29 -47 36 -68 31
-91 -3 -16 -7 -48 -9 -69 -2 -22 -11 -45 -19 -51 -9 -6 -19 -23 -22 -37 -4
-15 -20 -38 -36 -52 -16 -14 -29 -33 -29 -42 0 -27 -29 -71 -50 -77 -50 -13
-256 67 -312 120 -32 31 -34 43 -13 83 20 39 54 39 114 0 58 -37 121 -63 121
-50 0 5 -10 14 -22 21 -13 6 -48 31 -80 55 -39 30 -66 44 -87 44 -28 0 -31 3
-31 30 0 27 6 34 43 50 82 38 138 20 221 -69 37 -39 51 -40 31 -1 -19 38 -133
130 -161 130 -11 0 -42 -7 -68 -16 -26 -9 -50 -14 -52 -11 -3 3 -3 20 1 37 8
37 47 58 125 67 65 8 115 -12 167 -64 53 -55 75 -53 35 3 -58 80 -128 108
-226 90 l-66 -13 0 27 c0 31 34 67 76 80 43 14 139 5 176 -17z m-872 -244 c0
-5 4 -8 9 -4 5 3 16 -2 24 -10 9 -8 20 -15 25 -15 6 0 12 -3 14 -7 4 -10 106
-75 141 -91 15 -7 46 -12 68 -12 57 0 49 -26 -21 -62 -50 -26 -62 -28 -125
-24 -162 12 -340 8 -381 -8 -54 -23 -69 -44 -47 -68 9 -10 14 -20 11 -23 -3
-3 -54 -6 -114 -7 -60 0 -114 -5 -121 -10 -7 -5 -22 -7 -33 -3 -17 5 -20 12
-16 33 6 31 -7 51 -46 71 -16 8 -28 21 -28 28 0 8 -5 11 -12 7 -7 -4 -8 -3 -4
4 4 7 15 8 30 2 13 -5 27 -5 32 0 5 5 21 10 35 12 14 2 38 11 52 21 14 9 29
17 32 17 3 0 25 19 47 41 23 23 66 57 94 76 44 29 58 34 89 29 20 -4 45 -11
55 -16 27 -15 61 -11 95 10 33 20 95 26 95 9z m120 -259 c147 -8 419 -35 468
-46 26 -5 30 -34 5 -34 -10 0 -101 10 -203 21 -104 11 -294 23 -433 26 -136 3
-245 9 -241 12 29 30 153 36 404 21z m-702 -25 c3 -3 3 -7 1 -10 -3 -2 -108
-16 -233 -31 -163 -18 -231 -23 -239 -15 -6 6 -8 13 -5 16 3 3 79 16 169 30
149 22 290 27 307 10z m-508 -38 c0 -8 9 -25 21 -38 18 -21 28 -24 80 -22 l59
2 0 -81 c0 -70 3 -85 22 -105 28 -30 59 -29 96 2 37 31 43 31 73 -1 20 -21 31
-25 69 -22 l45 3 -2 -63 c-1 -71 -3 -74 -35 -77 -24 -3 -78 -10 -178 -25 -208
-31 -242 -34 -258 -24 -16 11 -91 271 -92 320 0 12 14 33 31 47 22 18 31 35
31 54 0 26 12 42 31 43 4 0 7 -6 7 -13z m975 -7 c6 0 2 -5 -8 -11 -20 -12 -51
-4 -43 10 4 5 14 8 24 6 9 -2 22 -4 27 -5z m780 -6 c9 -4 21 -17 25 -30 7 -17
24 -28 65 -39 34 -10 55 -22 55 -31 0 -8 -9 -48 -20 -89 -11 -41 -29 -109 -40
-152 -27 -101 -36 -116 -63 -109 -71 17 -267 48 -367 56 -63 6 -125 13 -137
15 -25 6 -42 51 -35 97 4 27 6 28 64 28 33 0 68 4 78 10 12 7 30 6 57 -3 47
-16 115 -8 143 18 29 27 40 74 24 107 -10 20 -11 34 -3 56 9 28 15 31 51 30
28 0 46 6 61 21 12 11 22 21 23 21 1 0 10 -3 19 -6z m-1815 -36 c0 -3 -18 -9
-40 -13 -22 -4 -42 -10 -45 -14 -7 -13 89 -406 104 -423 4 -4 107 8 230 27
255 40 455 55 721 55 311 0 533 -19 783 -67 75 -14 139 -24 141 -22 2 2 27 94
56 204 29 110 55 205 57 211 3 7 -25 18 -71 29 -42 9 -76 21 -76 26 0 12 11
11 60 -6 23 -8 62 -15 86 -15 24 0 44 -1 44 -3 0 -8 -130 -490 -132 -492 -2
-1 -49 8 -105 21 -242 55 -456 74 -833 74 -402 0 -568 -15 -917 -83 l-71 -14
-57 227 c-31 125 -58 236 -58 246 -2 13 13 23 53 39 51 20 69 18 70 -7z m410
-15 c0 -20 -5 -23 -45 -23 -39 0 -45 -3 -45 -21 0 -19 4 -21 40 -16 38 5 40 4
40 -23 0 -27 -2 -28 -40 -23 -40 6 -40 5 -40 -28 0 -32 -2 -34 -32 -33 -18 0
-32 4 -30 7 1 4 2 46 2 95 l0 87 75 0 c71 0 75 -1 75 -22z m80 -72 l0 -96 -30
0 -30 0 0 95 0 95 30 1 30 1 0 -96z m122 48 l39 -44 -3 45 c-3 44 -2 45 27 45
l30 0 3 -92 3 -93 -30 0 c-22 0 -38 10 -66 43 l-36 42 3 -44 c3 -43 2 -43 -29
-46 l-33 -3 0 98 0 99 27 -3 c17 -2 41 -19 65 -47z m278 21 c0 -24 -3 -25 -45
-22 -36 3 -45 1 -45 -12 0 -12 10 -16 40 -16 33 0 40 -3 40 -20 0 -17 -7 -20
-40 -20 -30 0 -40 -4 -40 -16 0 -13 9 -15 45 -12 42 3 45 2 45 -22 0 -24 -2
-25 -75 -25 l-75 0 0 95 0 95 75 0 c73 0 75 -1 75 -25z m112 -17 l33 -45 3 44
c3 42 5 45 32 45 l30 0 0 -97 0 -97 -30 5 c-21 3 -39 16 -58 43 -15 21 -30 39
-33 39 -4 0 -4 -20 -2 -44 l5 -44 -32 3 -32 2 1 92 c0 50 0 93 1 95 0 2 11 4
24 4 17 0 34 -14 58 -45z m278 17 c0 -24 -3 -25 -45 -22 -37 3 -45 1 -45 -13
0 -14 7 -16 40 -13 36 3 40 1 40 -19 0 -20 -5 -23 -40 -23 -30 0 -40 -4 -40
-16 0 -12 10 -15 48 -13 43 3 47 2 47 -20 0 -22 -4 -23 -78 -24 l-77 -2 0 95
0 95 75 0 c73 0 75 -1 75 -25z m178 16 c2 -2 -1 -13 -7 -24 -9 -17 -18 -19
-51 -15 -46 6 -57 -13 -12 -23 73 -15 96 -45 68 -89 -18 -27 -68 -40 -115 -30
-38 8 -45 19 -31 45 9 16 15 18 30 10 24 -13 60 -13 60 0 0 5 -12 12 -27 16
-86 20 -99 87 -23 117 15 6 100 0 108 -7z m168 1 c3 -3 3 -15 -1 -26 -5 -18
-12 -20 -46 -15 -53 9 -51 -10 3 -28 48 -15 63 -35 55 -70 -9 -34 -55 -52
-109 -44 -55 9 -59 13 -46 41 9 19 15 22 29 15 23 -13 69 -13 69 0 0 5 -12 12
-27 16 -57 12 -73 26 -73 60 0 43 37 66 98 60 24 -2 45 -6 48 -9z m-977 -231
c28 -15 13 -31 -20 -21 -24 8 -49 -10 -49 -36 0 -24 30 -40 52 -28 11 6 19 6
23 -1 11 -17 -5 -30 -37 -30 -66 0 -92 69 -42 109 31 24 40 25 73 7z m76 -86
c22 -19 35 -2 35 45 0 29 5 45 15 49 12 4 15 -5 15 -47 0 -59 -12 -77 -49 -77
-39 0 -61 27 -61 76 0 58 24 65 28 8 2 -23 9 -48 17 -54z m226 90 c5 0 9 -7 9
-15 0 -11 -8 -13 -30 -8 -39 7 -39 -12 0 -26 60 -20 46 -74 -18 -69 -20 2 -37
9 -40 16 -2 8 5 11 25 10 32 -3 47 15 17 21 -28 5 -44 21 -44 43 0 20 36 40
58 32 8 -2 18 -4 23 -4z m64 -58 c1 -82 -21 -86 -27 -4 -5 62 -2 75 15 69 7
-2 12 -29 12 -65z m137 0 c-2 -31 -7 -59 -9 -62 -3 -3 -20 13 -39 34 l-34 39
0 -36 c0 -26 -4 -37 -15 -37 -12 0 -15 13 -15 60 0 72 13 77 60 23 l31 -38 -5
37 c-5 39 -1 49 18 42 9 -3 11 -22 8 -62z m128 47 c0 -5 -16 -9 -35 -9 -26 0
-35 -4 -35 -16 0 -13 7 -15 30 -10 22 4 30 2 30 -9 0 -10 -10 -15 -30 -15 -21
0 -30 -5 -30 -16 0 -13 7 -15 35 -10 28 6 35 4 35 -9 0 -11 -12 -15 -50 -15
l-50 0 0 59 0 60 43 3 c47 3 57 1 57 -13z m-430 -49 c0 -47 -3 -60 -15 -60
-12 0 -15 13 -15 60 0 47 3 60 15 60 12 0 15 -13 15 -60z"/>
<path d="M1388 2204 c-138 -33 -277 -132 -328 -234 l-28 -56 -62 -12 c-88 -16
-142 -45 -200 -108 -63 -70 -84 -136 -78 -238 8 -112 67 -205 165 -258 69 -38
126 -50 233 -52 l94 -1 17 -55 c9 -30 20 -90 24 -133 l7 -79 42 4 c22 3 80 16
128 31 202 61 393 55 615 -18 9 -3 12 19 10 88 -2 76 2 103 21 153 l23 61 57
7 c31 4 77 16 101 28 60 29 152 122 187 188 26 50 28 65 29 155 0 89 -3 106
-28 156 -31 63 -102 135 -168 171 -38 20 -58 23 -156 23 l-111 0 -54 51 c-124
117 -357 173 -540 128z m291 -39 c192 -46 325 -187 324 -344 -1 -108 -44 -179
-140 -233 -63 -36 -79 -54 -37 -44 74 18 172 99 199 163 20 46 19 128 -1 209
-9 36 -13 68 -9 72 3 4 41 7 83 7 95 0 168 -32 232 -101 60 -65 84 -124 84
-209 0 -117 -60 -223 -167 -295 -82 -55 -121 -59 -260 -24 -103 27 -126 29
-287 28 -186 0 -302 -16 -406 -55 -52 -20 -78 -48 -31 -35 275 80 566 87 750
17 l28 -11 -20 -38 c-25 -49 -44 -153 -35 -197 l6 -35 -28 11 c-71 26 -166 41
-271 40 -124 0 -197 -11 -323 -47 -46 -13 -90 -24 -97 -24 -8 0 -13 14 -13 40
0 52 -18 134 -42 189 l-18 44 -73 -6 c-187 -13 -311 43 -373 169 -21 43 -27
70 -27 122 0 113 52 200 153 260 41 24 55 27 145 27 83 0 107 -4 140 -22 72
-38 112 -99 122 -184 6 -53 19 -64 29 -24 17 69 -32 183 -97 223 -19 11 -60
28 -92 37 l-57 17 27 49 c50 93 164 173 291 203 77 19 212 19 291 1z"/>
<path d="M2451 1509 c5 -22 15 -55 23 -72 7 -18 23 -74 35 -124 22 -88 41
-121 41 -70 0 68 -78 307 -100 307 -4 0 -4 -18 1 -41z"/>
<path d="M668 1434 c-14 -35 -48 -186 -48 -215 0 -5 4 -9 9 -9 10 0 21 24 27
60 2 14 11 55 20 91 9 37 14 78 12 90 -3 21 -5 18 -20 -17z"/>
</g>
</svg>
